<?xml version="1.0" encoding="UTF-8"?>
<svg xmlns="http://www.w3.org/2000/svg" xmlns:xlink="http://www.w3.org/1999/xlink" viewBox="0 0 480 480" width="480px" height="480px">
<g id="surface60761085">
<path style=" stroke:none;fill-rule:nonzero;fill:rgb(80.000001%,80.000001%,80.000001%);fill-opacity:1;" d="M 370 80 C 387 80 400 93 400 110 L 400 370 C 400 387 387 400 370 400 L 110 400 C 93 400 80 387 80 370 L 80 110 C 80 93 93 80 110 80 L 370 80 M 370 60 L 110 60 C 82 60 60 82 60 110 L 60 370 C 60 398 82 420 110 420 L 370 420 C 398 420 420 398 420 370 L 420 110 C 420 82 398 60 370 60 Z M 370 60 "/>
<path style=" stroke:none;fill-rule:nonzero;fill:rgb(80.000001%,80.000001%,80.000001%);fill-opacity:1;" d="M 160 140 C 148.953125 140 140 148.953125 140 160 C 140 171.046875 148.953125 180 160 180 C 171.046875 180 180 171.046875 180 160 C 180 148.953125 171.046875 140 160 140 Z M 225 130 C 211.191406 130 200 141.191406 200 155 C 200 168.808594 211.191406 180 225 180 C 238.808594 180 250 168.808594 250 155 C 250 141.191406 238.808594 130 225 130 Z M 300 120 C 283.429688 120 270 133.429688 270 150 C 270 166.570312 283.429688 180 300 180 C 316.570312 180 330 166.570312 330 150 C 330 133.429688 316.570312 120 300 120 Z M 350 360 L 350 275 C 350 245 325 220 295 220 C 265 220 240 245 240 275 L 240 360 Z M 350 360 "/>
<path style=" stroke:none;fill-rule:nonzero;fill:rgb(80.000001%,80.000001%,80.000001%);fill-opacity:1;" d="M 270 320 L 270 248 C 270 227 252 210 230 210 C 208 210 190 227 190 248 L 190 320 Z M 270 320 "/>
<path style=" stroke:none;fill-rule:nonzero;fill:rgb(80.000001%,80.000001%,80.000001%);fill-opacity:1;" d="M 200 290 L 200 237 C 200 216 184 199 165 199 C 146 199 130 216 130 237 L 130 290 Z M 200 290 "/>
</g>
</svg>
